<svg width="59" height="59" viewBox="0 0 59 59" fill="none" xmlns="http://www.w3.org/2000/svg">
<path d="M37.1348 1.01758C46.768 3.44424 55.1271 11.6674 57.7989 21.2393L58.9747 27.2695V31.7305L57.8477 37.5518C55.1269 47.2952 47.2703 55.1267 37.5391 57.8721L31.7179 59H27.2686L21.6554 57.9336C11.9244 55.2862 4.04361 47.4177 1.20028 37.7725L0.0362184 31.7188C0.109754 30.3338 -0.0740849 28.899 0.0362184 27.5264C1.11493 13.3464 12.6726 0.931442 27.1222 0.245117L27.5391 0H31.4727L37.1348 1.01758ZM50.1876 42.9697C61.4385 25.8482 47.7733 3.16248 27.502 4.80469L27.4893 4.79199C9.4734 6.25064 -0.992522 26.0925 8.11337 41.8535C17.2194 57.6145 40.1009 58.3138 50.1876 42.9697ZM34.4503 20.1484C36.5952 19.8787 43.3352 17.9792 44.8429 18.457C46.7302 19.0576 46.9513 21.8273 45.1866 22.7588C43.2011 23.8251 37.6488 24.0701 35.1241 24.7441C34.7687 24.8422 34.254 24.9159 34.1192 25.3203C33.7396 26.4486 34.683 32.3184 34.9893 33.8135C35.7983 37.7108 38.4702 42.4172 38.9972 45.7998C39.4505 48.7041 37.2569 50.0031 35.002 48.2266L29.7559 34.8672L24.7559 47.9443C24.0206 49.2067 22.1082 49.3661 21.0665 48.4102H21.0792C20.8586 48.2018 20.5394 47.6013 20.4903 47.2949C20.1962 45.4688 22.8437 39.9286 23.4932 37.7471C24.6942 33.6782 24.7922 29.5602 24.6329 25.332C24.4857 24.9033 23.9834 24.8666 23.628 24.7686C20.9318 23.9842 16.2749 23.8862 13.9952 22.8691C12.0589 21.999 12.2177 19.094 14.1661 18.4688C15.7103 17.9785 22.3904 19.8788 24.5597 20.1484C27.8442 20.5651 31.1657 20.5651 34.4503 20.1484ZM28.5167 10.0254C34.4118 8.7998 35.6868 17.7222 30.0001 18.335C24.3135 18.9477 23.6638 11.0307 28.5167 10.0254Z" fill="url(#paint0_linear_2195_3755)"/>
<defs>
<linearGradient id="paint0_linear_2195_3755" x1="29.4873" y1="0" x2="44.3311" y2="27.6648" gradientUnits="userSpaceOnUse">
<stop stop-color="#FCD30B"/>
<stop offset="1" stop-color="#2269FF"/>
</linearGradient>
</defs>
</svg>
