<svg width="75" height="46" viewBox="0 0 75 46" fill="none" xmlns="http://www.w3.org/2000/svg">
<path d="M23.2378 29.7676C25.4913 28.3732 30.768 27.1315 33.3139 27.8242C34.11 28.0446 34.6003 28.683 35.3423 28.9619C36.3498 29.3443 38.0014 29.1959 39.0405 28.917C40.2726 28.5841 40.844 27.806 42.2202 27.6846C45.1125 27.4282 50.1905 28.2386 52.687 29.7725H52.6919C53.9737 30.5597 54.5453 31.9805 54.9096 33.3838C55.7733 36.6944 55.5214 40.361 55.3325 43.7481L48.7563 44.0762L48.0854 40.2481L47.5014 45.0791H28.4292L27.8442 40.2481L27.1694 44.0713L20.5981 43.7481C20.3912 40.541 20.2059 37.1446 20.8716 33.9824C21.2044 32.3902 21.7941 30.6628 23.2378 29.7676ZM12.6059 22.0537C14.1668 20.9472 19.209 19.836 20.9048 20.6592C22.2001 21.2889 22.4972 21.6617 24.1343 21.5088C25.3712 21.3919 26.0287 20.5332 27.1352 20.4297C27.4725 20.3983 27.8326 20.4477 28.1743 20.4297C28.3498 22.4491 29.1275 24.3472 30.2563 26.0069C29.8336 25.9934 29.4017 26.0431 28.979 26.1016C26.4556 26.4434 22.2321 27.4959 20.5542 29.502C19.9336 30.244 19.6456 31.0942 19.2095 31.9082L16.5151 31.918C16.3847 31.0499 16.3216 30.1631 16.1821 29.2949C16.1597 29.1691 16.1769 29.0389 16.0151 29.003L15.6821 31.918H10.937L10.7661 29.7139C10.8111 27.6763 10.7754 23.3538 12.6059 22.0537ZM47.0093 20.1865C47.1621 20.0921 48.3086 20.2626 48.5522 20.3301C49.1054 20.4785 49.488 20.9103 50.0366 21.0947C50.8463 21.3691 52.2408 21.3646 53.0639 21.1172C53.6757 20.9328 54.1034 20.4297 54.7241 20.2813V20.2725C56.6044 19.8227 61.7367 20.7847 62.9917 22.377C64.656 24.4911 64.1972 29.1876 64.1567 31.7471H59.4106L58.9927 28.8321L58.4975 31.711L55.7944 31.7373C55.3357 30.8468 54.9938 29.8935 54.3237 29.1289C52.9159 27.5142 49.4929 26.5877 47.4282 26.1963C46.5736 26.0344 45.7006 25.9169 44.8325 25.836C46.0784 24.2077 46.7439 22.2106 47.0093 20.1865ZM36.6401 9.3594C44.9347 8.56772 48.2411 19.4314 43.0503 25.0586C38.2058 30.3032 30.7119 26.6145 29.6997 20.1104C28.9935 15.5763 31.6248 9.83628 36.6401 9.3594ZM14.7221 13.2637C14.983 13.2457 15.2533 13.2772 15.5141 13.2637C15.6446 15.0674 16.3241 16.7864 17.3452 18.2617C15.0736 18.4282 12.5766 18.95 10.5434 19.9981C8.90179 20.8437 8.20014 21.9055 7.54344 23.5967L5.19578 23.583L4.8491 21.0147C4.65119 21.0057 4.7001 20.9922 4.68211 21.1406C4.58768 21.9096 4.49782 22.6875 4.42137 23.461L4.30027 23.5781L0.188947 23.5108C0.0810286 22.9981 0.139318 22.4765 0.107892 21.9639C0.103394 21.8559 0.0219547 21.7698 0.0219547 21.7608C-0.00502268 21.1671 -0.00952727 20.4384 0.0219547 19.8447C0.0939227 18.4145 0.386832 15.7476 1.60106 14.8028C2.9595 13.7502 6.98581 12.9538 8.61863 13.3721C9.41912 13.5791 9.77011 14.1683 10.8091 14.2627C12.8466 14.4471 13.2424 13.3762 14.7221 13.2637ZM59.4956 13.2637C61.0202 13.0075 61.8299 14.1722 63.2827 14.2666C65.1897 14.3881 65.5902 13.3724 67.1147 13.2598C68.7699 13.1383 72.6159 13.844 73.7407 15.1348C74.6718 16.2053 74.9328 18.6433 74.9868 20.0108L74.9985 20.3965C75.0059 20.7943 75.0003 21.2085 74.9868 21.5899C74.9868 21.6033 74.9065 21.6842 74.9018 21.792C74.8704 22.3903 74.9242 22.9981 74.8208 23.5918L70.6548 23.5557C70.5737 23.4769 70.3633 21.6084 70.3227 21.3067C70.3092 21.1942 70.4031 20.9513 70.2007 21.0098L69.8139 23.583L67.4663 23.5957C66.9266 22.3499 66.4675 21.2838 65.3071 20.4922C63.229 19.0753 60.1385 18.4597 57.6645 18.2617C58.6766 16.7864 59.3651 15.0674 59.4956 13.2637ZM22.9106 5.54104C26.6575 5.1677 29.3569 8.71603 29.393 12.1885C29.402 13.1691 28.7987 14.0152 28.5063 14.9688C28.0881 16.3361 28.2592 16.6917 27.0942 17.7217C23.3743 21.0142 18.3809 18.2612 17.5532 13.7676C16.8831 10.1467 18.9795 5.93259 22.9106 5.54104ZM51.2329 5.54104C57.8272 4.93829 60.0761 15.1445 54.4399 18.4102C52.083 19.7774 49.0783 19.2107 47.3735 17.0967C46.8427 16.4355 46.9328 15.9584 46.6899 15.1983C46.2311 13.7499 45.5248 12.8907 45.7632 11.3164C46.195 8.44213 48.1877 5.81995 51.2329 5.54104ZM63.3247 0.0215067C63.5586 -0.000952242 64.0167 -0.00542828 64.2417 0.0215067C67.6198 0.453328 69.4646 4.0699 68.9653 7.2051C68.349 11.0778 64.2599 13.7273 60.7964 11.168C59.2941 10.057 59.4917 9.24272 58.9116 7.64162C58.5652 6.67452 58.3271 6.68306 58.4126 5.47756C58.597 2.85514 60.6123 0.291395 63.3247 0.0215067ZM10.8491 0.0166239C11.0694 -0.00585509 11.4562 -0.00583164 11.6811 0.0166239C14.6723 0.304497 16.9533 3.56576 16.5981 6.48049C16.5531 6.85384 16.2292 7.26828 16.0942 7.64162C15.5276 9.22027 15.7072 10.0885 14.2095 11.168V11.1631C10.3635 13.934 6.05904 10.5513 5.93309 6.30959C5.84772 3.40391 7.81302 0.345079 10.8491 0.0166239ZM37.0923 0.0166239C37.3127 -0.00586682 37.7004 -0.00586682 37.9253 0.0166239C38.1503 0.0392287 38.5956 0.16111 38.8384 0.228538C42.4454 1.24086 43.7861 5.85105 42.2075 9.0176C39.846 7.67719 37.0567 7.33519 34.4839 8.2842C34.0145 8.45853 33.5672 8.75726 33.0981 8.92873C33.1452 8.10659 32.3512 7.19523 32.2612 6.47658C31.9014 3.5709 34.1057 0.349697 37.0923 0.0166239ZM33.0981 8.93264H33.0893C33.0923 8.93156 33.0952 8.92982 33.0981 8.92873C33.0981 8.92988 33.0982 8.93149 33.0981 8.93264Z" fill="url(#paint0_linear_2198_4679)"/>
<defs>
<linearGradient id="paint0_linear_2198_4679" x1="37.5009" y1="-0.000244141" x2="45.4503" y2="24.66" gradientUnits="userSpaceOnUse">
<stop stop-color="#FCD30B"/>
<stop offset="1" stop-color="#2269FF"/>
</linearGradient>
</defs>
</svg>
