<svg width="67" height="68" viewBox="0 0 67 68" fill="none" xmlns="http://www.w3.org/2000/svg">
<mask id="path-1-outside-1_2198_4585" maskUnits="userSpaceOnUse" x="0" y="0" width="67" height="68" fill="black">
<rect fill="white" width="67" height="68"/>
<path d="M5.36129 52.0021C5.3662 52.0188 5.50609 52.4866 5.82516 52.7677C8.44014 55.081 14.5835 56.3416 18.0185 56.9064C21.4534 57.4711 25.043 57.8192 28.5244 57.8888L26.83 56.3029L29.2129 53.3556L36.3154 58.5548C37.5609 59.9396 37.1432 60.8521 35.9287 61.9816C34.01 63.7765 31.2173 65.2778 29.1826 67.0031L26.8076 63.6916L28.9043 62.0744C22.0962 61.5638 14.7307 61.0691 8.29391 58.6554C5.24581 57.5105 1.47003 55.6612 1.17575 52.0021H5.36129ZM66.1377 52.0089C65.6914 56.4677 60.1791 58.4389 56.4521 59.506C52.1196 60.7516 47.454 61.3396 42.9668 61.6955L42.789 57.7189C48.2047 56.9143 56.112 56.435 60.7617 53.3791C61.4413 52.931 61.8661 52.012 61.9599 52.0089H66.1377ZM16.6552 1.27261C27.6954 0.413876 39.8575 1.91408 51.0136 1.30289C55.1759 1.74394 58.2859 5.21846 57.9687 9.45035C62.1929 9.12542 65.6974 12.2354 66.1152 16.4054C66.8656 23.9409 65.6201 32.6368 66.1152 40.2961C65.6819 43.9864 63.0047 46.9572 59.2138 47.2589C53.6281 47.6999 47.4308 46.9577 41.7832 47.2052C39.7875 46.849 39.88 43.5218 39.0058 42.0519L28.4765 41.9289C27.3396 43.5923 27.7337 46.9957 25.2119 47.2511C19.6415 46.8334 13.2354 47.8234 7.76559 47.2277C4.09074 46.8253 1.37502 43.5681 1.18161 39.9396C1.638 32.4043 0.60137 24.211 1.18161 16.7531C1.52214 12.3666 4.91863 9.17186 9.35934 9.45035C9.05761 5.00178 12.2763 1.61303 16.6552 1.27261ZM8.55465 13.5041L8.54684 13.4962C6.89903 13.6201 5.58369 14.7265 5.35934 16.3898V40.3273C5.59933 42.122 7.11587 43.2127 8.86422 43.2746L23.4707 43.2433C23.8342 43.1196 24.2984 41.0864 24.5615 40.5363C25.0566 39.5073 26.0164 38.5401 27.0918 38.13C28.7164 37.5034 36.2588 37.5877 38.3095 37.7502C40.3597 37.9126 41.8995 38.7254 42.8047 40.6671C43.1141 41.3324 43.3773 43.1504 44.0039 43.2668H58.6259C60.4595 43.0501 61.7907 42.0517 61.9609 40.1408C62.6262 32.5822 61.4503 24.0489 61.9609 16.3898C61.7211 14.5949 60.2045 13.5044 58.456 13.4425L8.55465 13.5041ZM32.2763 17.6584C33.4832 17.3876 37.1198 17.5584 38.2881 18.0226C42.5662 19.7325 42.8442 25.5811 39.2158 28.1574L41.8154 32.4201L38.497 34.5168L34.9843 29.4025V33.7746H31V18.8498C31.0779 18.5323 31.8819 17.7435 32.2763 17.6584ZM26.6445 18.3009L21.9795 32.6212C21.1517 34.2458 18.8468 34.1222 18.2353 32.3742L13.5234 18.2853L17.5156 17.047L19.9834 25.0236C20.4708 25.101 20.2773 24.9774 20.3779 24.7531C21.3991 22.4941 21.98 19.423 22.831 17.0402L26.6445 18.3009ZM50.1318 17.6584C56.646 16.3277 57.017 26.4708 50.4873 25.5734C46.1707 24.985 46.1785 18.4629 50.1318 17.6584ZM34.9922 25.0236C38.5974 25.4413 38.6283 21.0786 34.9922 21.6046V25.0236ZM16.1054 5.47379C14.2025 5.86077 13.2199 7.57813 13.3359 9.44254H53.9765L53.9843 9.45035C54.1313 7.40788 52.8313 5.45808 50.665 5.45035L16.1054 5.47379Z"/>
</mask>
<path d="M5.36129 52.0021C5.3662 52.0188 5.50609 52.4866 5.82516 52.7677C8.44014 55.081 14.5835 56.3416 18.0185 56.9064C21.4534 57.4711 25.043 57.8192 28.5244 57.8888L26.83 56.3029L29.2129 53.3556L36.3154 58.5548C37.5609 59.9396 37.1432 60.8521 35.9287 61.9816C34.01 63.7765 31.2173 65.2778 29.1826 67.0031L26.8076 63.6916L28.9043 62.0744C22.0962 61.5638 14.7307 61.0691 8.29391 58.6554C5.24581 57.5105 1.47003 55.6612 1.17575 52.0021H5.36129ZM66.1377 52.0089C65.6914 56.4677 60.1791 58.4389 56.4521 59.506C52.1196 60.7516 47.454 61.3396 42.9668 61.6955L42.789 57.7189C48.2047 56.9143 56.112 56.435 60.7617 53.3791C61.4413 52.931 61.8661 52.012 61.9599 52.0089H66.1377ZM16.6552 1.27261C27.6954 0.413876 39.8575 1.91408 51.0136 1.30289C55.1759 1.74394 58.2859 5.21846 57.9687 9.45035C62.1929 9.12542 65.6974 12.2354 66.1152 16.4054C66.8656 23.9409 65.6201 32.6368 66.1152 40.2961C65.6819 43.9864 63.0047 46.9572 59.2138 47.2589C53.6281 47.6999 47.4308 46.9577 41.7832 47.2052C39.7875 46.849 39.88 43.5218 39.0058 42.0519L28.4765 41.9289C27.3396 43.5923 27.7337 46.9957 25.2119 47.2511C19.6415 46.8334 13.2354 47.8234 7.76559 47.2277C4.09074 46.8253 1.37502 43.5681 1.18161 39.9396C1.638 32.4043 0.60137 24.211 1.18161 16.7531C1.52214 12.3666 4.91863 9.17186 9.35934 9.45035C9.05761 5.00178 12.2763 1.61303 16.6552 1.27261ZM8.55465 13.5041L8.54684 13.4962C6.89903 13.6201 5.58369 14.7265 5.35934 16.3898V40.3273C5.59933 42.122 7.11587 43.2127 8.86422 43.2746L23.4707 43.2433C23.8342 43.1196 24.2984 41.0864 24.5615 40.5363C25.0566 39.5073 26.0164 38.5401 27.0918 38.13C28.7164 37.5034 36.2588 37.5877 38.3095 37.7502C40.3597 37.9126 41.8995 38.7254 42.8047 40.6671C43.1141 41.3324 43.3773 43.1504 44.0039 43.2668H58.6259C60.4595 43.0501 61.7907 42.0517 61.9609 40.1408C62.6262 32.5822 61.4503 24.0489 61.9609 16.3898C61.7211 14.5949 60.2045 13.5044 58.456 13.4425L8.55465 13.5041ZM32.2763 17.6584C33.4832 17.3876 37.1198 17.5584 38.2881 18.0226C42.5662 19.7325 42.8442 25.5811 39.2158 28.1574L41.8154 32.4201L38.497 34.5168L34.9843 29.4025V33.7746H31V18.8498C31.0779 18.5323 31.8819 17.7435 32.2763 17.6584ZM26.6445 18.3009L21.9795 32.6212C21.1517 34.2458 18.8468 34.1222 18.2353 32.3742L13.5234 18.2853L17.5156 17.047L19.9834 25.0236C20.4708 25.101 20.2773 24.9774 20.3779 24.7531C21.3991 22.4941 21.98 19.423 22.831 17.0402L26.6445 18.3009ZM50.1318 17.6584C56.646 16.3277 57.017 26.4708 50.4873 25.5734C46.1707 24.985 46.1785 18.4629 50.1318 17.6584ZM34.9922 25.0236C38.5974 25.4413 38.6283 21.0786 34.9922 21.6046V25.0236ZM16.1054 5.47379C14.2025 5.86077 13.2199 7.57813 13.3359 9.44254H53.9765L53.9843 9.45035C54.1313 7.40788 52.8313 5.45808 50.665 5.45035L16.1054 5.47379Z" fill="url(#paint0_linear_2198_4585)"/>
<path d="M5.36129 52.0021L5.84088 51.8607L5.73514 51.5021H5.36129V52.0021ZM5.82516 52.7677L6.15645 52.3932L6.15571 52.3926L5.82516 52.7677ZM18.0185 56.9064L17.9374 57.3998L18.0185 56.9064ZM28.5244 57.8888L28.5144 58.3887L29.818 58.4148L28.8661 57.5238L28.5244 57.8888ZM26.83 56.3029L26.4412 55.9885L26.1489 56.3501L26.4884 56.6679L26.83 56.3029ZM29.2129 53.3556L29.5082 52.9522L29.1237 52.6707L28.824 53.0413L29.2129 53.3556ZM36.3154 58.5548L36.6872 58.2205L36.6525 58.182L36.6107 58.1514L36.3154 58.5548ZM35.9287 61.9816L35.5882 61.6155L35.5871 61.6165L35.9287 61.9816ZM29.1826 67.0031L28.7763 67.2945L29.0923 67.7352L29.5059 67.3844L29.1826 67.0031ZM26.8076 63.6916L26.5022 63.2956L26.1199 63.5906L26.4013 63.983L26.8076 63.6916ZM28.9043 62.0744L29.2096 62.4703L30.2428 61.6734L28.9417 61.5758L28.9043 62.0744ZM8.29391 58.6554L8.11809 59.1235L8.11836 59.1236L8.29391 58.6554ZM1.17575 52.0021V51.5021H0.633919L0.677355 52.0422L1.17575 52.0021ZM66.1377 52.0089L66.6352 52.0587L66.6902 51.5089H66.1377V52.0089ZM56.4521 59.506L56.3145 59.0253L56.314 59.0255L56.4521 59.506ZM42.9668 61.6955L42.4673 61.7178L42.4904 62.2348L43.0063 62.1939L42.9668 61.6955ZM42.789 57.7189L42.7155 57.2243L42.2694 57.2906L42.2895 57.7412L42.789 57.7189ZM60.7617 53.3791L61.0363 53.7969L61.0369 53.7965L60.7617 53.3791ZM61.9599 52.0089V51.5089H61.9517L61.9436 51.5092L61.9599 52.0089ZM16.6552 1.27261L16.694 1.77111L16.694 1.77111L16.6552 1.27261ZM51.0136 1.30289L51.0663 0.805671L51.0264 0.801439L50.9863 0.803635L51.0136 1.30289ZM57.9687 9.45035L57.4701 9.41298L57.4266 9.99352L58.0071 9.94888L57.9687 9.45035ZM66.1152 16.4054L66.6127 16.3559L66.6127 16.3556L66.1152 16.4054ZM66.1152 40.2961L66.6118 40.3544L66.6171 40.3092L66.6142 40.2638L66.1152 40.2961ZM59.2138 47.2589L59.2532 47.7574L59.2535 47.7574L59.2138 47.2589ZM41.7832 47.2052L41.6953 47.6974L41.7498 47.7072L41.8051 47.7048L41.7832 47.2052ZM39.0058 42.0519L39.4356 41.7963L39.2922 41.5552L39.0117 41.5519L39.0058 42.0519ZM28.4765 41.9289L28.4824 41.4289L28.2148 41.4258L28.0637 41.6467L28.4765 41.9289ZM25.2119 47.2511L25.1745 47.7497L25.2184 47.753L25.2623 47.7486L25.2119 47.2511ZM7.76559 47.2277L7.71117 47.7247L7.71145 47.7248L7.76559 47.2277ZM1.18161 39.9396L0.68252 39.9094L0.680799 39.9378L0.682314 39.9662L1.18161 39.9396ZM1.18161 16.7531L1.6801 16.7919L1.68011 16.7918L1.18161 16.7531ZM9.35934 9.45035L9.32804 9.94937L9.89675 9.98503L9.85819 9.41651L9.35934 9.45035ZM8.55465 13.5041L8.2011 13.8576L8.3478 14.0043L8.55527 14.0041L8.55465 13.5041ZM8.54684 13.4962L8.90039 13.1427L8.73815 12.9805L8.50936 12.9977L8.54684 13.4962ZM5.35934 16.3898L4.86383 16.323L4.85934 16.3562V16.3898H5.35934ZM5.35934 40.3273H4.85934V40.3606L4.86375 40.3936L5.35934 40.3273ZM8.86422 43.2746L8.84653 43.7743L8.85591 43.7746L8.86529 43.7746L8.86422 43.2746ZM23.4707 43.2433L23.4717 43.7433L23.554 43.7431L23.6318 43.7166L23.4707 43.2433ZM24.5615 40.5363L24.1109 40.3195L24.1104 40.3206L24.5615 40.5363ZM27.0918 38.13L27.2699 38.5972L27.2717 38.5965L27.0918 38.13ZM38.3095 37.7502L38.349 37.2517L38.349 37.2517L38.3095 37.7502ZM42.8047 40.6671L43.258 40.4563L43.2578 40.4559L42.8047 40.6671ZM44.0039 43.2668L43.9126 43.7583L43.9578 43.7668H44.0039V43.2668ZM58.6259 43.2668V43.7668H58.6554L58.6846 43.7633L58.6259 43.2668ZM61.9609 40.1408L62.4589 40.1851L62.459 40.1846L61.9609 40.1408ZM61.9609 16.3898L62.4598 16.4231L62.4631 16.3732L62.4565 16.3236L61.9609 16.3898ZM58.456 13.4425L58.4737 12.9428L58.4646 12.9425L58.4554 12.9425L58.456 13.4425ZM32.2763 17.6584L32.3819 18.1471L32.3858 18.1462L32.2763 17.6584ZM38.2881 18.0226L38.4736 17.5583L38.4727 17.558L38.2881 18.0226ZM39.2158 28.1574L38.9263 27.7497L38.5461 28.0196L38.7889 28.4177L39.2158 28.1574ZM41.8154 32.4201L42.0825 32.8428L42.4985 32.5799L42.2423 32.1597L41.8154 32.4201ZM38.497 34.5168L38.0849 34.7998L38.3573 35.1965L38.7641 34.9394L38.497 34.5168ZM34.9843 29.4025L35.3965 29.1194L34.4843 27.7914V29.4025H34.9843ZM34.9843 33.7746V34.2746H35.4843V33.7746H34.9843ZM31 33.7746H30.5V34.2746H31V33.7746ZM31 18.8498L30.5144 18.7305L30.5 18.7893V18.8498H31ZM26.6445 18.3009L27.1199 18.4558L27.2741 17.9825L26.8014 17.8262L26.6445 18.3009ZM21.9795 32.6212L22.425 32.8482L22.4427 32.8134L22.4549 32.7761L21.9795 32.6212ZM18.2353 32.3742L17.7611 32.5328L17.7634 32.5393L18.2353 32.3742ZM13.5234 18.2853L13.3753 17.8078L12.8871 17.9592L13.0492 18.4439L13.5234 18.2853ZM17.5156 17.047L17.9933 16.8992L17.8454 16.4212L17.3675 16.5695L17.5156 17.047ZM19.9834 25.0236L19.5057 25.1714L19.5977 25.4686L19.905 25.5174L19.9834 25.0236ZM20.3779 24.7531L19.9223 24.5471L19.9216 24.5486L20.3779 24.7531ZM22.831 17.0402L22.988 16.5655L22.5244 16.4122L22.3601 16.872L22.831 17.0402ZM50.1318 17.6584L50.2315 18.1483L50.2319 18.1482L50.1318 17.6584ZM50.4873 25.5734L50.5554 25.0781L50.5548 25.078L50.4873 25.5734ZM34.9922 25.0236H34.4922V25.469L34.9346 25.5203L34.9922 25.0236ZM34.9922 21.6046L34.9206 21.1098L34.4922 21.1718V21.6046H34.9922ZM16.1054 5.47379L16.1051 4.97379L16.0549 4.97382L16.0058 4.98381L16.1054 5.47379ZM13.3359 9.44254L12.8369 9.4736L12.8661 9.94254H13.3359V9.44254ZM53.9765 9.44254L54.3301 9.08898L54.1836 8.94254H53.9765V9.44254ZM53.9843 9.45035L53.6308 9.8039L54.4045 10.5776L54.4831 9.48624L53.9843 9.45035ZM50.665 5.45035L50.6668 4.95035L50.6647 4.95035L50.665 5.45035ZM5.36129 52.0021L4.88171 52.1435C4.88894 52.168 4.9344 52.3177 5.02633 52.5056C5.1157 52.6881 5.26533 52.9408 5.49461 53.1429L5.82516 52.7677L6.15571 52.3926C6.06593 52.3135 5.98607 52.1917 5.9245 52.0659C5.86549 51.9454 5.83856 51.8528 5.84088 51.8607L5.36129 52.0021ZM5.82516 52.7677L5.49387 53.1422C6.88962 54.3769 9.17206 55.2948 11.4731 55.9724C13.7935 56.6556 16.2109 57.1159 17.9374 57.3998L18.0185 56.9064L18.0996 56.413C16.3911 56.1321 14.0193 55.6797 11.7555 55.0131C9.47239 54.3408 7.37568 53.4718 6.15645 52.3932L5.82516 52.7677ZM18.0185 56.9064L17.9374 57.3998C21.3941 57.9681 25.0075 58.3186 28.5144 58.3887L28.5244 57.8888L28.5344 57.3889C25.0786 57.3198 21.5128 56.9742 18.0996 56.413L18.0185 56.9064ZM28.5244 57.8888L28.8661 57.5238L27.1717 55.9379L26.83 56.3029L26.4884 56.6679L28.1827 58.2539L28.5244 57.8888ZM26.83 56.3029L27.2189 56.6172L29.6017 53.67L29.2129 53.3556L28.824 53.0413L26.4412 55.9885L26.83 56.3029ZM29.2129 53.3556L28.9175 53.7591L36.0201 58.9583L36.3154 58.5548L36.6107 58.1514L29.5082 52.9522L29.2129 53.3556ZM36.3154 58.5548L35.9436 58.8892C36.5169 59.5266 36.613 59.9485 36.5529 60.2728C36.4844 60.6426 36.1889 61.0568 35.5882 61.6155L35.9287 61.9816L36.2692 62.3477C36.883 61.7769 37.4036 61.1702 37.5362 60.4551C37.6771 59.6946 37.3593 58.9678 36.6872 58.2205L36.3154 58.5548ZM35.9287 61.9816L35.5871 61.6165C34.6595 62.4842 33.5122 63.2883 32.3169 64.1057C31.1342 64.9145 29.9012 65.7383 28.8592 66.6217L29.1826 67.0031L29.5059 67.3844C30.4987 66.5427 31.6794 65.7531 32.8814 64.9312C34.0708 64.1178 35.2792 63.2739 36.2703 62.3467L35.9287 61.9816ZM29.1826 67.0031L29.5889 66.7117L27.2139 63.4002L26.8076 63.6916L26.4013 63.983L28.7763 67.2945L29.1826 67.0031ZM26.8076 63.6916L27.113 64.0875L29.2096 62.4703L28.9043 62.0744L28.5989 61.6785L26.5022 63.2956L26.8076 63.6916ZM28.9043 62.0744L28.9417 61.5758C22.1144 61.0637 14.8262 60.5709 8.46946 58.1873L8.29391 58.6554L8.11836 59.1236C14.6352 61.5673 22.078 62.0638 28.8669 62.573L28.9043 62.0744ZM8.29391 58.6554L8.46973 58.1874C6.95684 57.6191 5.30955 56.8919 4.00978 55.8774C2.71747 54.8688 1.80648 53.6076 1.67414 51.962L1.17575 52.0021L0.677355 52.0422C0.839296 54.0557 1.96334 55.5487 3.39451 56.6657C4.81823 57.7769 6.58288 58.5468 8.11809 59.1235L8.29391 58.6554ZM1.17575 52.0021V52.5021H5.36129V52.0021V51.5021H1.17575V52.0021ZM66.1377 52.0089L65.6401 51.9591C65.439 53.9684 64.0978 55.4605 62.2608 56.605C60.4238 57.7494 58.1711 58.4938 56.3145 59.0253L56.4521 59.506L56.5897 59.9867C58.4602 59.4512 60.8271 58.6764 62.7896 57.4538C64.752 56.2312 66.39 54.5083 66.6352 52.0587L66.1377 52.0089ZM56.4521 59.506L56.314 59.0255C52.029 60.2574 47.4021 60.8421 42.9272 61.197L42.9668 61.6955L43.0063 62.1939C47.5059 61.837 52.2102 61.2458 56.5903 59.9865L56.4521 59.506ZM42.9668 61.6955L43.4663 61.6731L43.2885 57.6966L42.789 57.7189L42.2895 57.7412L42.4673 61.7178L42.9668 61.6955ZM42.789 57.7189L42.8625 58.2135C45.5295 57.8172 48.9127 57.4884 52.1541 56.8848C55.4043 56.2796 58.6251 55.3816 61.0363 53.7969L60.7617 53.3791L60.4871 52.9612C58.2486 54.4325 55.1909 55.3021 51.971 55.9017C48.7425 56.5029 45.4642 56.816 42.7155 57.2243L42.789 57.7189ZM60.7617 53.3791L61.0369 53.7965C61.457 53.5195 61.7769 53.1146 61.9884 52.8163C62.0925 52.6694 62.1886 52.5212 62.2422 52.4425C62.2567 52.421 62.2684 52.4042 62.278 52.391C62.2827 52.3846 62.2863 52.3796 62.2892 52.3759C62.2905 52.3741 62.2916 52.3728 62.2924 52.3718C62.2931 52.3709 62.2935 52.3704 62.2935 52.3705C62.2934 52.3705 62.2929 52.3711 62.2919 52.3723C62.2908 52.3735 62.2891 52.3754 62.2866 52.378C62.2823 52.3825 62.2726 52.3923 62.2582 52.4044C62.2521 52.4094 62.1477 52.5031 61.9763 52.5087L61.9599 52.0089L61.9436 51.5092C61.7604 51.5152 61.6417 51.6164 61.6188 51.6355C61.5763 51.6708 61.5441 51.7076 61.5253 51.7302C61.4861 51.7772 61.4471 51.8333 61.4152 51.8802C61.3415 51.9886 61.2713 52.0988 61.1726 52.2379C60.9783 52.512 60.7459 52.7906 60.4865 52.9616L60.7617 53.3791ZM61.9599 52.0089V52.5089H66.1377V52.0089V51.5089H61.9599V52.0089ZM16.6552 1.27261L16.694 1.77111C22.1825 1.3442 27.9564 1.50324 33.7745 1.69465C39.5825 1.88573 45.4363 2.10919 51.041 1.80214L51.0136 1.30289L50.9863 0.803635C45.4348 1.10778 39.6295 0.886733 33.8074 0.695191C27.9953 0.50398 22.1681 0.342293 16.6165 0.774119L16.6552 1.27261ZM51.0136 1.30289L50.9609 1.8001C54.8718 2.21452 57.7658 5.46748 57.4701 9.41298L57.9687 9.45035L58.4673 9.48772C58.806 4.96944 55.4799 1.27336 51.0663 0.805671L51.0136 1.30289ZM57.9687 9.45035L58.0071 9.94888C61.9462 9.64587 65.2255 12.5411 65.6177 16.4553L66.1152 16.4054L66.6127 16.3556C66.1693 11.9297 62.4396 8.60497 57.9304 8.95182L57.9687 9.45035ZM66.1152 16.4054L65.6177 16.455C65.989 20.1835 65.8671 24.2082 65.7113 28.2852C65.556 32.349 65.3666 36.4672 65.6162 40.3283L66.1152 40.2961L66.6142 40.2638C66.3686 36.4657 66.5545 32.4063 66.7106 28.3234C66.8661 24.2538 66.9919 20.1628 66.6127 16.3559L66.1152 16.4054ZM66.1152 40.2961L65.6186 40.2377C65.2093 43.7235 62.6963 46.4802 59.1742 46.7605L59.2138 47.2589L59.2535 47.7574C63.3132 47.4342 66.1545 44.2493 66.6118 40.3544L66.1152 40.2961ZM59.2138 47.2589L59.1745 46.7605C56.4133 46.9785 53.4938 46.9044 50.5385 46.8049C47.5932 46.7057 44.609 46.5809 41.7613 46.7057L41.7832 47.2052L41.8051 47.7048C44.6049 47.582 47.5432 47.7045 50.5049 47.8043C53.4566 47.9037 56.4286 47.9803 59.2532 47.7574L59.2138 47.2589ZM41.7832 47.2052L41.871 46.713C41.1892 46.5913 40.7883 45.962 40.4506 44.8953C40.2857 44.3743 40.1632 43.8465 40.0097 43.2934C39.8638 42.7674 39.6914 42.2264 39.4356 41.7963L39.0058 42.0519L38.5761 42.3075C38.7574 42.6123 38.9012 43.0384 39.0461 43.5608C39.1836 44.0561 39.3266 44.658 39.4973 45.1971C39.8308 46.2505 40.3815 47.4629 41.6953 47.6974L41.7832 47.2052ZM39.0058 42.0519L39.0117 41.5519L28.4824 41.4289L28.4765 41.9289L28.4707 42.4288L39 42.5519L39.0058 42.0519ZM28.4765 41.9289L28.0637 41.6467C27.7325 42.1314 27.5264 42.7204 27.3614 43.2864C27.1858 43.8888 27.067 44.4194 26.8886 44.9618C26.7162 45.4857 26.5191 45.9105 26.2507 46.2153C25.9969 46.5036 25.6639 46.7028 25.1615 46.7537L25.2119 47.2511L25.2623 47.7486C26.0208 47.6718 26.5842 47.3498 27.0013 46.8761C27.4037 46.419 27.652 45.841 27.8385 45.2743C28.0189 44.726 28.1723 44.0779 28.3214 43.5662C28.4811 43.0183 28.6521 42.558 28.8893 42.211L28.4765 41.9289ZM25.2119 47.2511L25.2493 46.7525C22.4289 46.541 19.4022 46.6861 16.4308 46.8065C13.4445 46.9276 10.5119 47.0238 7.81973 46.7306L7.76559 47.2277L7.71145 47.7248C10.4891 48.0273 13.4945 47.9264 16.4713 47.8057C19.463 47.6845 22.4245 47.5435 25.1745 47.7497L25.2119 47.2511ZM7.76559 47.2277L7.82001 46.7307C4.41828 46.3582 1.86292 43.3278 1.6809 39.913L1.18161 39.9396L0.682314 39.9662C0.887115 43.8083 3.76319 47.2925 7.71117 47.7247L7.76559 47.2277ZM1.18161 39.9396L1.68069 39.9698C1.91059 36.1741 1.76425 32.2167 1.63489 28.3008C1.50519 24.3747 1.39246 20.489 1.6801 16.7919L1.18161 16.7531L0.683112 16.7143C0.390514 20.4752 0.505978 24.415 0.635436 28.3338C0.765233 32.2629 0.909015 36.1698 0.68252 39.9094L1.18161 39.9396ZM1.18161 16.7531L1.68011 16.7918C2.00105 12.6576 5.17973 9.68921 9.32804 9.94937L9.35934 9.45035L9.39063 8.95133C4.65753 8.6545 1.04323 12.0755 0.683105 16.7144L1.18161 16.7531ZM9.35934 9.45035L9.85819 9.41651C9.57659 5.26469 12.5647 2.09211 16.694 1.77111L16.6552 1.27261L16.6165 0.774117C11.9879 1.13394 8.53863 4.73888 8.86049 9.48418L9.35934 9.45035ZM8.55465 13.5041L8.90821 13.1505L8.90039 13.1427L8.54684 13.4962L8.19329 13.8498L8.2011 13.8576L8.55465 13.5041ZM8.54684 13.4962L8.50936 12.9977C6.65182 13.1373 5.12307 14.401 4.86383 16.323L5.35934 16.3898L5.85485 16.4566C6.04431 15.052 7.14625 14.1029 8.58432 13.9948L8.54684 13.4962ZM5.35934 16.3898H4.85934V40.3273H5.35934H5.85934V16.3898H5.35934ZM5.35934 40.3273L4.86375 40.3936C5.14267 42.4794 6.90807 43.7056 8.84653 43.7743L8.86422 43.2746L8.88191 42.7749C7.32367 42.7197 6.05598 41.7645 5.85493 40.261L5.35934 40.3273ZM8.86422 43.2746L8.86529 43.7746L23.4717 43.7433L23.4707 43.2433L23.4696 42.7433L8.86315 42.7746L8.86422 43.2746ZM23.4707 43.2433L23.6318 43.7166C23.8365 43.6469 23.9612 43.4858 24.0206 43.4009C24.0938 43.2965 24.1574 43.1736 24.2124 43.0529C24.3234 42.8095 24.4308 42.5043 24.5288 42.2055C24.6261 41.9092 24.725 41.5842 24.8075 41.326C24.8959 41.0491 24.9643 40.853 25.0126 40.752L24.5615 40.5363L24.1104 40.3206C24.0272 40.4947 23.9388 40.759 23.8549 41.0218C23.7649 41.3035 23.6758 41.5977 23.5786 41.8938C23.4823 42.1876 23.3891 42.4483 23.3025 42.6381C23.2588 42.734 23.2244 42.7945 23.2016 42.8272C23.165 42.8793 23.1957 42.8088 23.3095 42.77L23.4707 43.2433ZM24.5615 40.5363L25.012 40.7531C25.4598 39.8226 26.3303 38.9555 27.2699 38.5972L27.0918 38.13L26.9136 37.6628C25.7025 38.1247 24.6535 39.1921 24.1109 40.3195L24.5615 40.5363ZM27.0918 38.13L27.2717 38.5965C27.6001 38.4699 28.305 38.3603 29.2815 38.2819C30.2343 38.2054 31.3817 38.1625 32.5487 38.1441C34.8862 38.1073 37.267 38.1691 38.2701 38.2486L38.3095 37.7502L38.349 37.2517C37.3013 37.1687 34.8855 37.1072 32.533 37.1443C31.3549 37.1628 30.184 37.2062 29.2015 37.2851C28.2429 37.362 27.3957 37.4769 26.9118 37.6635L27.0918 38.13ZM38.3095 37.7502L38.27 38.2486C39.2411 38.3255 40.0555 38.5538 40.7236 38.9667C41.3866 39.3765 41.9357 39.9865 42.3515 40.8784L42.8047 40.6671L43.2578 40.4559C42.7684 39.4061 42.0951 38.6388 41.2493 38.1161C40.4087 37.5966 39.4281 37.3372 38.349 37.2517L38.3095 37.7502ZM42.8047 40.6671L42.3513 40.878C42.4102 41.0047 42.475 41.2067 42.5547 41.4784C42.6298 41.7346 42.7157 42.043 42.8107 42.3299C42.9049 42.6146 43.0199 42.9157 43.1663 43.1612C43.3001 43.3855 43.5328 43.6878 43.9126 43.7583L44.0039 43.2668L44.0952 42.7752C44.1616 42.7875 44.1265 42.819 44.0251 42.6489C43.9362 42.4999 43.8486 42.2831 43.76 42.0157C43.6722 41.7504 43.5951 41.4723 43.5142 41.1969C43.438 40.9369 43.3538 40.6623 43.258 40.4563L42.8047 40.6671ZM44.0039 43.2668V43.7668H58.6259V43.2668V42.7668H44.0039V43.2668ZM58.6259 43.2668L58.6846 43.7633C59.6725 43.6466 60.5689 43.3143 61.2483 42.7138C61.936 42.1059 62.3635 41.2561 62.4589 40.1851L61.9609 40.1408L61.4629 40.0964C61.3881 40.9364 61.0649 41.5412 60.5861 41.9645C60.099 42.395 59.413 42.6703 58.5673 42.7702L58.6259 43.2668ZM61.9609 40.1408L62.459 40.1846C62.7948 36.3695 62.6654 32.3161 62.5186 28.2848C62.3713 24.2415 62.2066 20.2216 62.4598 16.4231L61.9609 16.3898L61.462 16.3565C61.2046 20.2171 61.3725 24.2934 61.5192 28.3212C61.6664 32.361 61.7923 36.3535 61.4628 40.0969L61.9609 40.1408ZM61.9609 16.3898L62.4565 16.3236C62.1777 14.2374 60.4122 13.0115 58.4737 12.9428L58.456 13.4425L58.4383 13.9422C59.9967 13.9974 61.2644 14.9524 61.4653 16.456L61.9609 16.3898ZM58.456 13.4425L58.4554 12.9425L8.55404 13.0041L8.55465 13.5041L8.55527 14.0041L58.4566 13.9425L58.456 13.4425ZM32.2763 17.6584L32.3858 18.1462C32.9155 18.0274 34.0651 17.9973 35.269 18.0641C35.8606 18.0969 36.4469 18.1521 36.9529 18.2265C37.4684 18.3023 37.8674 18.3935 38.1034 18.4873L38.2881 18.0226L38.4727 17.558C38.1246 17.4196 37.6309 17.3154 37.0983 17.2371C36.5561 17.1574 35.9388 17.0997 35.3244 17.0656C34.1163 16.9986 32.8441 17.0185 32.1669 17.1705L32.2763 17.6584ZM38.2881 18.0226L38.1025 18.4869C41.9576 20.0277 42.2816 25.3674 38.9263 27.7497L39.2158 28.1574L39.5053 28.5651C43.4068 25.7949 43.1748 19.4373 38.4736 17.5583L38.2881 18.0226ZM39.2158 28.1574L38.7889 28.4177L41.3885 32.6804L41.8154 32.4201L42.2423 32.1597L39.6427 27.897L39.2158 28.1574ZM41.8154 32.4201L41.5483 31.9974L38.23 34.0941L38.497 34.5168L38.7641 34.9394L42.0825 32.8428L41.8154 32.4201ZM38.497 34.5168L38.9092 34.2337L35.3965 29.1194L34.9843 29.4025L34.5722 29.6856L38.0849 34.7998L38.497 34.5168ZM34.9843 29.4025H34.4843V33.7746H34.9843H35.4843V29.4025H34.9843ZM34.9843 33.7746V33.2746H31V33.7746V34.2746H34.9843V33.7746ZM31 33.7746H31.5V18.8498H31H30.5V33.7746H31ZM31 18.8498L31.4855 18.969C31.4783 18.9987 31.4852 18.9605 31.5727 18.847C31.6467 18.7511 31.7488 18.6389 31.8642 18.5291C31.9796 18.4193 32.0991 18.3205 32.2049 18.2477C32.2577 18.2114 32.3023 18.1848 32.3374 18.167C32.3749 18.148 32.3887 18.1456 32.3819 18.1471L32.2763 17.6584L32.1708 17.1696C31.9741 17.2121 31.7842 17.3233 31.638 17.4239C31.4797 17.5328 31.3194 17.6671 31.1748 17.8048C31.0301 17.9425 30.8919 18.0923 30.7809 18.2363C30.6835 18.3626 30.5607 18.5421 30.5144 18.7305L31 18.8498ZM26.6445 18.3009L26.1691 18.1461L21.504 32.4664L21.9795 32.6212L22.4549 32.7761L27.1199 18.4558L26.6445 18.3009ZM21.9795 32.6212L21.534 32.3943C20.9013 33.636 19.17 33.5318 18.7073 32.2091L18.2353 32.3742L17.7634 32.5393C18.5236 34.7125 21.4022 34.8556 22.425 32.8482L21.9795 32.6212ZM18.2353 32.3742L18.7095 32.2156L13.9976 18.1267L13.5234 18.2853L13.0492 18.4439L17.7611 32.5328L18.2353 32.3742ZM13.5234 18.2853L13.6715 18.7629L17.6637 17.5246L17.5156 17.047L17.3675 16.5695L13.3753 17.8078L13.5234 18.2853ZM17.5156 17.047L17.0379 17.1948L19.5057 25.1714L19.9834 25.0236L20.461 24.8758L17.9933 16.8992L17.5156 17.047ZM19.9834 25.0236L19.905 25.5174C20.0281 25.5369 20.1596 25.5534 20.2768 25.5439C20.4098 25.5331 20.6452 25.4753 20.771 25.2288C20.8165 25.1397 20.8287 25.0574 20.8334 25.0209C20.836 25.0002 20.8376 24.9815 20.8384 24.9703C20.8396 24.9551 20.8398 24.9525 20.8405 24.9439C20.8421 24.9252 20.8423 24.9395 20.8342 24.9576L20.3779 24.7531L19.9216 24.5486C19.8632 24.6789 19.8499 24.7927 19.8442 24.8578C19.8432 24.8702 19.8419 24.8876 19.8416 24.8913C19.8409 24.8991 19.8409 24.8983 19.8414 24.8945C19.8419 24.8904 19.8438 24.8766 19.8487 24.8574C19.8537 24.8378 19.863 24.8082 19.8804 24.7742C19.8983 24.739 19.9236 24.7017 19.958 24.6668C19.9924 24.632 20.0295 24.6061 20.0651 24.5876C20.132 24.5528 20.1857 24.548 20.1962 24.5471C20.2087 24.5461 20.2064 24.5476 20.1791 24.5452C20.1537 24.543 20.1161 24.5384 20.0617 24.5298L19.9834 25.0236ZM20.3779 24.7531L20.8335 24.959C21.3613 23.7914 21.7705 22.4259 22.1496 21.0785C22.5327 19.7168 22.884 18.3786 23.3019 17.2084L22.831 17.0402L22.3601 16.872C21.9271 18.0846 21.5624 19.4734 21.187 20.8077C20.8075 22.1562 20.4157 23.4557 19.9223 24.5471L20.3779 24.7531ZM22.831 17.0402L22.6741 17.5149L26.4875 18.7757L26.6445 18.3009L26.8014 17.8262L22.988 16.5655L22.831 17.0402ZM50.1318 17.6584L50.2319 18.1482C51.7266 17.8429 52.806 18.2016 53.5227 18.8347C54.2532 19.4799 54.6606 20.4581 54.7014 21.4735C54.7423 22.4893 54.4145 23.4901 53.744 24.1796C53.087 24.8553 52.0512 25.2836 50.5554 25.0781L50.4873 25.5734L50.4192 26.0687C52.1882 26.3119 53.5546 25.8089 54.461 24.8767C55.3539 23.9584 55.7505 22.6748 55.7006 21.4333C55.6506 20.1915 55.1519 18.9395 54.1848 18.0852C53.2039 17.2187 51.7942 16.8085 50.0317 17.1685L50.1318 17.6584ZM50.4873 25.5734L50.5548 25.078C48.7005 24.8252 47.7473 23.311 47.7082 21.6849C47.6687 20.045 48.5609 18.4883 50.2315 18.1483L50.1318 17.6584L50.0321 17.1684C47.7495 17.633 46.6611 19.7397 46.7085 21.709C46.7562 23.6922 47.9574 25.7332 50.4197 26.0688L50.4873 25.5734ZM34.9922 25.0236L34.9346 25.5203C35.9348 25.6362 36.749 25.4261 37.3257 24.9907C37.9016 24.5559 38.2051 23.9201 38.2077 23.2755C38.2102 22.6297 37.9103 21.995 37.327 21.5712C36.745 21.1483 35.925 20.9645 34.9206 21.1098L34.9922 21.6046L35.0637 22.0995C35.8773 21.9818 36.4171 22.1461 36.7392 22.3802C37.0602 22.6134 37.209 22.9446 37.2077 23.2715C37.2064 23.5996 37.0534 23.9433 36.7232 24.1926C36.3937 24.4413 35.8521 24.6199 35.0497 24.5269L34.9922 25.0236ZM34.9922 21.6046H34.4922V25.0236H34.9922H35.4922V21.6046H34.9922ZM16.1054 5.47379L16.0058 4.98381C13.7996 5.43245 12.7094 7.42506 12.8369 9.4736L13.3359 9.44254L13.8349 9.41148C13.7304 7.7312 14.6053 6.28908 16.2051 5.96376L16.1054 5.47379ZM13.3359 9.44254V9.94254H53.9765V9.44254V8.94254H13.3359V9.44254ZM53.9765 9.44254L53.623 9.79609L53.6308 9.8039L53.9843 9.45035L54.3379 9.09679L54.3301 9.08898L53.9765 9.44254ZM53.9843 9.45035L54.4831 9.48624C54.6445 7.24357 53.2045 4.95941 50.6668 4.95035L50.665 5.45035L50.6632 5.95034C52.458 5.95675 53.6182 7.57219 53.4856 9.41446L53.9843 9.45035ZM50.665 5.45035L50.6647 4.95035L16.1051 4.97379L16.1054 5.47379L16.1058 5.97378L50.6653 5.95035L50.665 5.45035Z" fill="url(#paint1_linear_2198_4585)" mask="url(#path-1-outside-1_2198_4585)"/>
<defs>
<linearGradient id="paint0_linear_2198_4585" x1="20.3536" y1="18.9285" x2="42.8987" y2="57.7459" gradientUnits="userSpaceOnUse">
<stop stop-color="#FCD30B"/>
<stop offset="1" stop-color="#2269FF"/>
</linearGradient>
<linearGradient id="paint1_linear_2198_4585" x1="33.6811" y1="1" x2="62.4508" y2="62.8591" gradientUnits="userSpaceOnUse">
<stop stop-color="#FCD30B"/>
<stop offset="1" stop-color="#046FE1"/>
</linearGradient>
</defs>
</svg>
